<svg xmlns="http://www.w3.org/2000/svg" xmlns:xlink="http://www.w3.org/1999/xlink" xml:space="preserve" version="1.1" style="shape-rendering:geometricPrecision;text-rendering:geometricPrecision;image-rendering:optimizeQuality;" viewBox="0 0 350.48 438.1" x="0px" y="0px" fill-rule="evenodd" clip-rule="evenodd"><defs><style type="text/css">

    .fil0 {fill:black}
    .fil1 {fill:black;fill-rule:nonzero}

  </style></defs><g><path class="fil0" d="M246.91 245.03l71.48 55.29c3.5,2.71 3.88,7.78 0.83,10.97 -8.24,8.62 -17,16.72 -26.49,23.94 -22.3,16.96 -51.45,20.75 -76.05,6.36 -81.06,-47.42 -160.36,-126.72 -207.79,-207.79 -14.39,-24.6 -10.6,-53.75 6.36,-76.04 7.22,-9.5 15.33,-18.26 23.94,-26.5 3.19,-3.05 8.27,-2.67 10.97,0.83l55.29 71.48c1.3,1.68 1.79,3.61 1.46,5.71l-6.63 40.99c-0.76,9.79 2.5,18.61 9.44,25.56l64.92 64.92c6.95,6.94 15.77,10.2 25.56,9.44l40.99 -6.62c2.1,-0.34 4.03,0.15 5.71,1.45z"/><path class="fil1" d="M331.24 169.27c0,5.31 4.31,9.62 9.62,9.62 5.32,0 9.63,-4.31 9.63,-9.62 0,-92.99 -76.29,-169.27 -169.28,-169.27 -5.31,0 -9.62,4.3 -9.62,9.62 0,5.31 4.31,9.62 9.62,9.62 82.42,0 150.03,67.61 150.03,150.03z"/><path class="fil1" d="M284.04 169.27c0,5.31 4.31,9.62 9.62,9.62 5.31,0 9.62,-4.31 9.62,-9.62 0,-67.06 -55.01,-122.07 -122.07,-122.07 -5.31,0 -9.62,4.31 -9.62,9.62 0,5.31 4.31,9.62 9.62,9.62 56.49,0 102.83,46.35 102.83,102.83z"/><path class="fil1" d="M236.84 169.27c0,5.31 4.3,9.62 9.62,9.62 5.31,0 9.62,-4.31 9.62,-9.62 0,-41.13 -33.74,-74.87 -74.87,-74.87 -5.31,0 -9.62,4.31 -9.62,9.62 0,5.32 4.31,9.63 9.62,9.63 30.55,0 55.63,25.07 55.63,55.62z"/></g><text x="0" y="365.48" fill="#000000" font-size="5px" font-weight="bold" font-family="'Helvetica Neue', Helvetica, Arial-Unicode, Arial, Sans-serif">Created by Frenggo</text><text x="0" y="370.48" fill="#000000" font-size="5px" font-weight="bold" font-family="'Helvetica Neue', Helvetica, Arial-Unicode, Arial, Sans-serif">from the Noun Project</text></svg>
